Coordinates
version=1
nRows=17
nColumns=40
inDegrees=yes

Units are S.I. units (second, meters, Newtons, ...)
Angles are in degrees.

endheader
time	pelvis_tilt	pelvis_list	pelvis_rotation	pelvis_tx	pelvis_ty	pelvis_tz	hip_flexion_r	hip_adduction_r	hip_rotation_r	knee_angle_r	knee_angle_r_beta	ankle_angle_r	subtalar_angle_r	mtp_angle_r	hip_flexion_l	hip_adduction_l	hip_rotation_l	knee_angle_l	knee_angle_l_beta	ankle_angle_l	subtalar_angle_l	mtp_angle_l	lumbar_extension	lumbar_bending	lumbar_rotation	arm_flex_r	arm_add_r	arm_rot_r	elbow_flex_r	pro_sup_r	wrist_flex_r	wrist_dev_r	arm_flex_l	arm_add_l	arm_rot_l	elbow_flex_l	pro_sup_l	wrist_flex_l	wrist_dev_l
     55.38500000	     -3.26250700	     -3.78689046	     -4.23899171	      1.11723758	      0.91878464	      0.45991034	     27.72658651	     -1.92627909	    -14.70618798	     12.10833387	     12.10833387	      2.08743094	      5.48287273	      9.22690010	     -4.25757774	     -3.70342308	    -14.53728443	     11.86374124	     11.86374124	     19.53116508	     -5.15171055	     -5.34135130	    -10.02209781	      7.01914207	      2.90446212	    -16.23736460	    -11.99743178	    -13.95407204	     20.74975472	     47.71491873	      0.00000000	      0.00000000	     24.78841886	    -19.58545085	    -10.82832924	     86.95684375	     47.80167775	      0.00000000	      0.00000000
     55.39635714	     -3.25988011	     -3.80517885	     -4.17664022	      1.11910522	      0.91692115	      0.46204717	     27.26428391	     -1.56927363	    -15.32906947	     11.33760018	     11.33760018	      1.77240638	      6.33804758	      9.18636612	     -5.10306637	     -3.85956243	    -14.70703471	     11.79899732	     11.79899732	     20.11130230	     -4.59063197	     -5.10602057	     -9.80154009	      6.98216890	      3.05081543	    -18.01402025	    -11.78189832	    -14.30780060	     21.09995660	     47.70046625	      0.00000000	      0.00000000	     24.97908087	    -19.49958521	    -10.96585841	     89.07617316	     47.86425162	      0.00000000	      0.00000000
     55.40771429	     -3.31999781	     -3.84668585	     -4.09290802	      1.12102580	      0.91497537	      0.46446540	     26.98505521	     -1.23080299	    -15.69617269	     11.14113289	     11.14113289	      0.83087531	      6.59396175	      7.04600011	     -5.66874733	     -4.17926670	    -15.15204846	     12.22593929	     12.22593929	     21.24984326	     -3.50551734	     -4.00325124	     -9.54588286	      6.97269053	      2.71804362	    -19.82636836	    -11.54845184	    -15.16265794	     22.96860286	     47.63416689	      0.00000000	      0.00000000	     24.50543720	    -19.89317968	    -11.39902344	     91.73780683	     47.97919114	      0.00000000	      0.00000000
     55.41907143	     -3.34781631	     -3.94691868	     -4.00911775	      1.12293358	      0.91325672	      0.46708369	     26.62165402	     -0.80900345	    -15.64358661	     11.11199728	     11.11199728	     -0.73212860	      6.04522019	      3.43240287	     -6.15088165	     -4.59024400	    -15.36475904	     12.87327370	     12.87327370	     22.20630796	     -2.93163920	     -2.94031344	     -9.29707285	      7.01035454	      2.79124620	    -21.15083480	    -11.24414958	    -15.54596330	     23.34482710	     47.58388107	      0.00000000	      0.00000000	     24.55529868	    -19.70484047	    -11.62571216	     93.32825140	     48.07571858	      0.00000000	      0.00000000
     55.43042857	     -3.37288107	     -4.12011307	     -3.90331403	      1.12486138	      0.91176379	      0.46984706	     26.34943446	     -0.39050317	    -15.47912179	     11.54144205	     11.54144205	     -2.19325522	      5.19615527	     -0.10865208	     -6.55548533	     -5.10240781	    -15.36288240	     13.64371646	     13.64371646	     22.85572257	     -2.75315845	     -2.50623038	     -9.06776043	      7.13848363	      2.77839556	    -22.02060604	    -11.00613164	    -15.73492904	     23.21217432	     47.53980620	      0.00000000	      0.00000000	     24.35149069	    -19.63932904	    -11.85101280	     94.81848112	     48.17431258	      0.00000000	      0.00000000
     55.44178571	     -3.35809694	     -4.36094258	     -3.81839381	      1.12669323	      0.91072188	      0.47273090	     26.23916500	     -0.02369886	    -15.36189222	     12.63501259	     12.63501259	     -2.49680807	      4.58987911	     -0.85121407	     -6.88259157	     -5.69547404	    -15.18382363	     14.59394375	     14.59394375	     23.07767637	     -3.12036801	     -2.61710889	     -8.88987266	      7.33374634	      2.99601917	    -22.65160782	    -10.76872695	    -15.72770131	     22.89602879	     47.53856315	      0.00000000	      0.00000000	     24.34758073	    -19.29389505	    -11.89359725	     95.70443425	     48.20208808	      0.00000000	      0.00000000
     55.45314286	     -3.33784535	     -4.60674376	     -3.72588322	      1.12859435	      0.90991546	      0.47588334	     25.96943855	      0.47118552	    -14.64089585	     13.42413710	     13.42413710	     -3.91047357	      2.71049516	     -4.64715418	     -7.01258167	     -6.43715265	    -15.25657207	     15.97651835	     15.97651835	     23.38346326	     -3.03408784	     -2.78498272	     -8.74520393	      7.47760645	      2.71247974	    -22.75117996	    -10.63110524	    -15.77179545	     22.38796535	     47.52406697	      0.00000000	      0.00000000	     23.47752516	    -19.29755073	    -12.44359718	     97.55372638	     48.31543958	      0.00000000	      0.00000000
     55.46450000	     -3.29976497	     -4.88391017	     -3.66752918	      1.13033464	      0.90965241	      0.47907316	     25.88418974	      0.82914363	    -14.40148749	     14.80862144	     14.80862144	     -3.82405985	      1.99125392	     -5.29022387	     -6.98944438	     -7.18885150	    -14.99827616	     17.60314287	     17.60314287	     23.24223005	     -3.75226194	     -3.12955616	     -8.64802448	      7.68141202	      3.01291614	    -22.85949305	    -10.35065718	    -15.69823367	     22.04728391	     47.52414782	      0.00000000	      0.00000000	     23.22147505	    -18.80883022	    -12.48650317	     98.15036883	     48.33697702	      0.00000000	      0.00000000
     55.47585714	     -3.22803285	     -5.18684631	     -3.62372966	      1.13203581	      0.90985435	      0.48242916	     25.69866505	      1.25966125	    -13.96229778	     16.09013570	     16.09013570	     -3.58986581	      0.98404881	     -5.84261731	     -6.78521827	     -8.04236282	    -14.75498372	     19.61982194	     19.61982194	     22.83497426	     -4.55490877	     -3.80138977	     -8.60010747	      7.90262557	      3.21848685	    -22.65537007	    -10.14880197	    -15.60747879	     21.65071971	     47.52988996	      0.00000000	      0.00000000	     22.65591069	    -18.36544519	    -12.57520122	     98.76297905	     48.36059304	      0.00000000	      0.00000000
     55.48721429	     -3.13998095	     -5.52498942	     -3.61083825	      1.13364511	      0.91053805	      0.48598202	     25.36909064	      1.82765759	    -13.25291044	     17.11091848	     17.11091848	     -3.26243001	     -0.41706589	     -6.22321954	     -6.48078001	     -8.98379848	    -14.54593894	     21.72401417	     21.72401417	     21.15976655	     -5.84803600	     -6.88659366	     -8.58551280	      8.11278184	      2.83038967	    -21.31860867	    -10.17322821	    -15.23444307	     19.92098180	     47.57252032	      0.00000000	      0.00000000	     21.23761172	    -18.12200545	    -13.52236820	     99.99918932	     48.48216430	      0.00000000	      0.00000000
     55.49857143	     -3.07297680	     -5.80219090	     -3.57914162	      1.13503696	      0.91157686	      0.48949046	     25.00484337	      2.23656453	    -13.03164755	     18.04524465	     18.04524465	     -2.59064393	     -0.87005775	     -6.34508797	     -5.75213836	     -9.92681140	    -14.13955032	     24.55575369	     24.55575369	     19.99119510	     -7.14249643	     -7.88844297	     -8.55929684	      8.28092385	      3.07674453	    -20.72554532	     -9.99895256	    -15.11028223	     19.70126715	     47.57468847	      0.00000000	      0.00000000	     20.52759315	    -17.52316517	    -13.51003171	    100.07416157	     48.48835057	      0.00000000	      0.00000000
     55.50992857	     -2.94559093	     -6.10573042	     -3.53123584	      1.13633616	      0.91307904	      0.49307564	     24.40900645	      2.71278591	    -12.82862008	     18.65628814	     18.65628814	     -1.79978869	     -1.24668891	     -6.26530799	     -4.86733998	    -10.94603233	    -13.65472569	     27.69573980	     27.69573980	     18.32146154	     -8.58889772	     -9.15967648	     -8.62129086	      8.46073460	      3.28916931	    -19.83349792	     -9.86004643	    -14.96550277	     19.51872092	     47.57803278	      0.00000000	      0.00000000	     19.62948407	    -16.96496169	    -13.55849321	     99.99220974	     48.49224183	      0.00000000	      0.00000000
     55.52128571	     -2.85290059	     -6.35802286	     -3.50165187	      1.13743911	      0.91482335	      0.49666862	     23.83449943	      3.14727290	    -12.63603068	     19.24919841	     19.24919841	     -0.34274782	     -1.33827570	     -4.44783011	     -3.96725465	    -11.82051442	    -12.92027270	     30.37875022	     30.37875022	     13.79852638	    -12.03834977	    -15.57669668	     -8.64748606	      8.55305072	      2.88816726	    -17.86137703	     -9.94188194	    -14.32315999	     17.86760110	     47.62116430	      0.00000000	      0.00000000	     18.08172829	    -16.45686112	    -14.58687711	    100.20942210	     48.59639050	      0.00000000	      0.00000000
     55.53264286	     -2.78094004	     -6.59994554	     -3.40604112	      1.13837815	      0.91665447	      0.50021735	     23.02704182	      3.56662996	    -12.73389930	     19.28434207	     19.28434207	      0.39718857	     -1.20132719	     -4.56599251	     -2.47657487	    -12.87464217	    -12.27318969	     34.24562066	     34.24562066	     11.66344635	    -13.37247525	    -15.93644383	     -8.65316752	      8.64455900	      3.08894580	    -16.83511969	     -9.81390973	    -14.22142762	     18.13590990	     47.61081332	      0.00000000	      0.00000000	     17.08050763	    -15.85147436	    -14.40686911	     99.65067180	     48.57366637	      0.00000000	      0.00000000
     55.54400000	     -2.63215506	     -6.85595455	     -3.29807831	      1.13916710	      0.91860375	      0.50370100	     22.07562896	      4.00441353	    -12.90572350	     19.18766608	     19.18766608	      1.14507503	     -0.97882715	     -4.64335077	     -0.89896880	    -13.91324405	    -11.49055533	     38.21830017	     38.21830017	      9.19781694	    -14.76150023	    -16.00824496	     -8.78396099	      8.75054195	      3.24340291	    -15.59457186	     -9.73590272	    -14.12588510	     18.50163412	     47.59817682	      0.00000000	      0.00000000	     16.07776102	    -15.22691444	    -14.26186579	     98.92793954	     48.54776146	      0.00000000	      0.00000000
     55.55535714	     -2.58265225	     -7.03031221	     -3.13282192	      1.13968739	      0.92041328	      0.50696876	     21.15661011	      4.35040074	    -13.15974764	     18.89596159	     18.89596159	      1.83210865	     -0.60016280	     -4.66449760	      0.99738920	    -14.80266963	    -10.47105693	     42.25471051	     42.25471051	      6.56453481	    -16.14623527	    -15.68383486	     -8.77548555	      8.76099363	      3.29940681	    -14.27529846	     -9.67103738	    -14.03348866	     18.94870887	     47.58205866	      0.00000000	      0.00000000	     14.97577593	    -14.59161907	    -14.14517137	     97.94548135	     48.51747927	      0.00000000	      0.00000000
     55.56671429	     -2.62172396	     -7.13231157	     -2.91083536	      1.13999814	      0.92200878	      0.50993629	     20.28470252	      4.58851636	    -13.55645280	     18.48151873	     18.48151873	      2.48510508	      0.00421788	     -4.64011134	      3.17260771	    -15.50677134	     -9.23400033	     46.28679013	     46.28679013	      4.05797592	    -17.38748679	    -14.64045335	     -8.64979211	      8.73915881	      3.21455560	    -12.90468464	     -9.66380222	    -13.93879319	     19.50052277	     47.56028324	      0.00000000	      0.00000000	     13.82162278	    -14.00723050	    -14.12276127	     96.55939648	     48.48543984	      0.00000000	      0.00000000
